<svg width="55" height="55" viewBox="0 0 55 55" fill="none" xmlns="http://www.w3.org/2000/svg">
<circle cx="27.5" cy="27.5" r="27.5" fill="#30C600"/>
<path d="M27.5 39.3705C29.3133 39.3705 30.7842 37.8812 30.7842 36.0437H24.2158C24.2158 37.8812 25.6867 39.3705 27.5 39.3705ZM38.5579 31.5884C37.5661 30.5093 35.7102 28.886 35.7102 23.5684C35.7102 19.5295 32.9132 16.2963 29.1418 15.5031V14.4198C29.1418 13.5013 28.4066 12.7564 27.5 12.7564C26.5934 12.7564 25.8582 13.5013 25.8582 14.4198V15.5031C22.0868 16.2963 19.2898 19.5295 19.2898 23.5684C19.2898 28.886 17.4339 30.5093 16.4421 31.5884C16.134 31.9237 15.9975 32.3245 16 32.7169C16.0057 33.5694 16.6664 34.3803 17.648 34.3803H37.352C38.3336 34.3803 38.9948 33.5694 39 32.7169C39.0025 32.3245 38.866 31.9232 38.5579 31.5884Z" fill="white"/>
</svg>
