<svg width="37" height="36" viewBox="0 0 37 36" fill="none" xmlns="http://www.w3.org/2000/svg">
<path d="M18.5041 8.77005C13.2544 8.77005 9.01991 12.891 9.01991 18C9.01991 23.109 13.2544 27.2299 18.5041 27.2299C23.7539 27.2299 27.9883 23.109 27.9883 18C27.9883 12.891 23.7539 8.77005 18.5041 8.77005ZM18.5041 24.0007C15.1116 24.0007 12.3381 21.3096 12.3381 18C12.3381 14.6904 15.1033 11.9993 18.5041 11.9993C21.9049 11.9993 24.6701 14.6904 24.6701 18C24.6701 21.3096 21.8967 24.0007 18.5041 24.0007ZM30.5885 8.3925C30.5885 9.58942 29.5979 10.5454 28.3763 10.5454C27.1464 10.5454 26.1641 9.58139 26.1641 8.3925C26.1641 7.20361 27.1547 6.23965 28.3763 6.23965C29.5979 6.23965 30.5885 7.20361 30.5885 8.3925ZM36.87 10.5775C36.7297 7.69363 36.0528 5.13913 33.8819 3.03447C31.7193 0.929822 29.0944 0.271115 26.1311 0.12652C23.077 -0.0421734 13.923 -0.0421734 10.8689 0.12652C7.91383 0.263082 5.28896 0.921789 3.11807 3.02644C0.947184 5.13109 0.278583 7.6856 0.130006 10.5695C-0.0433352 13.5417 -0.0433352 22.4503 0.130006 25.4225C0.270329 28.3064 0.947184 30.8609 3.11807 32.9655C5.28896 35.0702 7.90558 35.7289 10.8689 35.8735C13.923 36.0422 23.077 36.0422 26.1311 35.8735C29.0944 35.7369 31.7193 35.0782 33.8819 32.9655C36.0446 30.8609 36.7214 28.3064 36.87 25.4225C37.0433 22.4503 37.0433 13.5497 36.87 10.5775ZM32.9244 28.6116C32.2806 30.1861 31.0342 31.3991 29.4081 32.0337C26.9731 32.9736 21.195 32.7567 18.5041 32.7567C15.8132 32.7567 10.0269 32.9655 7.60017 32.0337C5.98232 31.4071 4.73592 30.1941 4.08383 28.6116C3.11807 26.2419 3.34094 20.6188 3.34094 18C3.34094 15.3812 3.12632 9.75008 4.08383 7.38837C4.72766 5.8139 5.97407 4.60091 7.60017 3.96631C10.0352 3.02644 15.8132 3.24333 18.5041 3.24333C21.195 3.24333 26.9813 3.03447 29.4081 3.96631C31.0259 4.59288 32.2723 5.80587 32.9244 7.38837C33.8902 9.75812 33.6673 15.3812 33.6673 18C33.6673 20.6188 33.8902 26.2499 32.9244 28.6116Z" fill="white"/>
</svg>
