<svg width="47" height="37" viewBox="0 0 47 37" fill="none" xmlns="http://www.w3.org/2000/svg">
<path d="M42.1689 9.22106C42.1987 9.62573 42.1987 10.0305 42.1987 10.4352C42.1987 22.7781 32.5065 37 14.7919 37C9.3344 37 4.26462 35.4679 0 32.8086C0.775411 32.8953 1.5209 32.9242 2.32614 32.9242C6.82926 32.9242 10.9746 31.45 14.2849 28.9352C10.0501 28.8484 6.50126 26.1602 5.27852 22.4602C5.87502 22.5468 6.47143 22.6047 7.09776 22.6047C7.96258 22.6047 8.8275 22.489 9.63265 22.2867C5.21895 21.4195 1.90856 17.6617 1.90856 13.1234V13.0078C3.19087 13.7016 4.68212 14.1352 6.26259 14.1929C3.66803 12.5163 1.96822 9.65465 1.96822 6.41712C1.96822 4.68278 2.44529 3.09294 3.28037 1.70543C8.02216 7.37105 15.1498 11.071 23.1421 11.4757C22.993 10.782 22.9035 10.0594 22.9035 9.33673C22.9035 4.19136 27.198 0 32.5362 0C35.3096 0 37.8147 1.12734 39.5742 2.94844C41.7512 2.54377 43.8388 1.76326 45.6879 0.693755C44.972 2.86177 43.4511 4.68287 41.4531 5.83904C43.3915 5.63679 45.2704 5.11636 47 4.39378C45.688 6.24371 44.0477 7.8913 42.1689 9.22106Z" fill="white"/>
</svg>
