<svg width="49" height="46" viewBox="0 0 49 46" fill="none" xmlns="http://www.w3.org/2000/svg">
<path d="M46.759 12.465C46.2247 10.5763 44.6504 9.08883 42.6515 8.58403C39.0284 7.66675 24.5002 7.66675 24.5002 7.66675C24.5002 7.66675 9.97201 7.66675 6.34881 8.58403C4.34994 9.08891 2.77564 10.5763 2.24132 12.465C1.27051 15.8884 1.27051 23.0311 1.27051 23.0311C1.27051 23.0311 1.27051 30.1737 2.24132 33.5971C2.77564 35.4858 4.34994 36.9113 6.34881 37.4161C9.97201 38.3334 24.5002 38.3334 24.5002 38.3334C24.5002 38.3334 39.0283 38.3334 42.6515 37.4161C44.6504 36.9113 46.2247 35.4858 46.759 33.5971C47.7298 30.1737 47.7298 23.0311 47.7298 23.0311C47.7298 23.0311 47.7298 15.8884 46.759 12.465ZM19.7486 29.516V16.5461L31.8913 23.0312L19.7486 29.516Z" fill="white"/>
</svg>
